<mxfile host="app.diagrams.net" modified="2022-10-10T08:30:05.874Z" agent="5.0 (Windows)" etag="HcTsEcR5ZtAgP_MbB9w1" version="20.4.0" type="github">
  <diagram name="Page-1" id="e7e014a7-5840-1c2e-5031-d8a46d1fe8dd">
    <mxGraphModel dx="1038" dy="564" grid="1" gridSize="10" guides="1" tooltips="1" connect="1" arrows="1" fold="1" page="1" pageScale="1" pageWidth="1169" pageHeight="826" background="none" math="0" shadow="0">
      <root>
        <mxCell id="0" />
        <mxCell id="1" parent="0" />
        <mxCell id="20" value="" style="endArrow=open;strokeColor=#FF0000;endFill=1;rounded=0;entryX=0.454;entryY=1.033;entryDx=0;entryDy=0;entryPerimeter=0;exitX=0.45;exitY=-0.04;exitDx=0;exitDy=0;exitPerimeter=0;" parent="1" source="10" target="wqFc-xufKlRpDcysINkV-48" edge="1">
          <mxGeometry relative="1" as="geometry">
            <mxPoint x="630" y="450" as="targetPoint" />
            <mxPoint x="630" y="510" as="sourcePoint" />
            <Array as="points" />
          </mxGeometry>
        </mxCell>
        <mxCell id="5" value="" style="ellipse;shape=startState;fillColor=#000000;strokeColor=none;" parent="1" vertex="1">
          <mxGeometry x="185" y="30" width="30" height="30" as="geometry" />
        </mxCell>
        <mxCell id="7" value="Register/Login" style="" parent="1" vertex="1">
          <mxGeometry x="140" y="124" width="110" height="50" as="geometry" />
        </mxCell>
        <mxCell id="9" value="" style="endArrow=open;strokeColor=#FF0000;endFill=1;rounded=0;entryX=0.5;entryY=0;entryDx=0;entryDy=0;" parent="1" target="EQn-mTOoUDCiC8reOYnC-47" edge="1">
          <mxGeometry relative="1" as="geometry">
            <mxPoint x="185" y="212" as="targetPoint" />
            <mxPoint x="200" y="174" as="sourcePoint" />
          </mxGeometry>
        </mxCell>
        <mxCell id="10" value="Enter Avaibility" style="fontSize=15;" parent="1" vertex="1">
          <mxGeometry x="589.5" y="480" width="110" height="50" as="geometry" />
        </mxCell>
        <mxCell id="11" value="" style="endArrow=open;strokeColor=#FF0000;endFill=1;rounded=0;exitX=0.5;exitY=1;exitDx=0;exitDy=0;" parent="1" source="EQn-mTOoUDCiC8reOYnC-47" edge="1">
          <mxGeometry relative="1" as="geometry">
            <mxPoint x="185" y="290" as="sourcePoint" />
            <mxPoint x="200" y="360" as="targetPoint" />
          </mxGeometry>
        </mxCell>
        <mxCell id="12" value="" style="edgeStyle=elbowEdgeStyle;elbow=horizontal;strokeColor=#FF0000;endArrow=open;endFill=1;rounded=0;entryX=1.018;entryY=0.56;entryDx=0;entryDy=0;entryPerimeter=0;" parent="1" source="EQn-mTOoUDCiC8reOYnC-47" target="7" edge="1">
          <mxGeometry width="100" height="100" relative="1" as="geometry">
            <mxPoint x="300" y="260" as="sourcePoint" />
            <mxPoint x="344.5" y="210" as="targetPoint" />
            <Array as="points">
              <mxPoint x="300.5" y="182" />
              <mxPoint x="330.5" y="202" />
              <mxPoint x="280.5" y="155" />
              <mxPoint x="120.5" y="192" />
              <mxPoint x="114.5" y="270" />
            </Array>
          </mxGeometry>
        </mxCell>
        <mxCell id="EQn-mTOoUDCiC8reOYnC-42" value="&lt;font style=&quot;font-size: 15px;&quot;&gt;Invalid&lt;/font&gt;" style="text;html=1;align=center;verticalAlign=middle;resizable=0;points=[];autosize=1;strokeColor=none;fillColor=none;" parent="1" vertex="1">
          <mxGeometry x="240" y="230" width="70" height="30" as="geometry" />
        </mxCell>
        <mxCell id="EQn-mTOoUDCiC8reOYnC-43" value="&lt;font style=&quot;font-size: 15px;&quot;&gt;Valid&lt;/font&gt;" style="text;html=1;align=center;verticalAlign=middle;resizable=0;points=[];autosize=1;strokeColor=none;fillColor=none;horizontal=0;" parent="1" vertex="1">
          <mxGeometry x="180" y="310" width="60" height="30" as="geometry" />
        </mxCell>
        <mxCell id="EQn-mTOoUDCiC8reOYnC-47" value="&lt;div&gt;Enters&lt;/div&gt;&lt;div&gt;Credentials&lt;br&gt;&lt;/div&gt;" style="rhombus;whiteSpace=wrap;html=1;fillColor=#ffffc0;strokeColor=#ff0000;fontSize=15;" parent="1" vertex="1">
          <mxGeometry x="140" y="220" width="120" height="78" as="geometry" />
        </mxCell>
        <mxCell id="26" value="" style="edgeStyle=elbowEdgeStyle;elbow=horizontal;verticalAlign=bottom;endArrow=open;endSize=8;strokeColor=#FF0000;endFill=1;rounded=0;exitX=0.5;exitY=1;exitDx=0;exitDy=0;entryX=-0.027;entryY=0.42;entryDx=0;entryDy=0;entryPerimeter=0;" parent="1" source="wqFc-xufKlRpDcysINkV-42" target="10" edge="1">
          <mxGeometry x="267.5" y="518" as="geometry">
            <mxPoint x="290" y="470" as="targetPoint" />
            <mxPoint x="200" y="505" as="sourcePoint" />
            <Array as="points">
              <mxPoint x="200" y="500" />
            </Array>
          </mxGeometry>
        </mxCell>
        <mxCell id="wqFc-xufKlRpDcysINkV-41" value="" style="endArrow=open;strokeColor=#FF0000;endFill=1;rounded=0;entryX=0.536;entryY=0.04;entryDx=0;entryDy=0;entryPerimeter=0;exitX=0.5;exitY=1;exitDx=0;exitDy=0;" edge="1" parent="1" source="5" target="7">
          <mxGeometry relative="1" as="geometry">
            <mxPoint x="250" y="87" as="targetPoint" />
            <mxPoint x="250" y="34" as="sourcePoint" />
          </mxGeometry>
        </mxCell>
        <mxCell id="wqFc-xufKlRpDcysINkV-42" value="&lt;div&gt;Choose&lt;/div&gt;&lt;div&gt;Role&lt;/div&gt;" style="rhombus;whiteSpace=wrap;html=1;fillColor=#ffffc0;strokeColor=#ff0000;fontSize=15;" vertex="1" parent="1">
          <mxGeometry x="140" y="360" width="120" height="78" as="geometry" />
        </mxCell>
        <mxCell id="wqFc-xufKlRpDcysINkV-44" value="&lt;font style=&quot;font-size: 15px;&quot;&gt;Appointment Receiver&lt;/font&gt;" style="text;html=1;strokeColor=none;fillColor=none;align=center;verticalAlign=middle;whiteSpace=wrap;rounded=0;" vertex="1" parent="1">
          <mxGeometry x="210" y="470" width="150" height="30" as="geometry" />
        </mxCell>
        <mxCell id="wqFc-xufKlRpDcysINkV-61" style="edgeStyle=orthogonalEdgeStyle;rounded=0;orthogonalLoop=1;jettySize=auto;html=1;exitX=0.5;exitY=0;exitDx=0;exitDy=0;fontSize=15;strokeColor=#FF3333;" edge="1" parent="1" source="wqFc-xufKlRpDcysINkV-46">
          <mxGeometry relative="1" as="geometry">
            <mxPoint x="420" y="440" as="targetPoint" />
          </mxGeometry>
        </mxCell>
        <mxCell id="wqFc-xufKlRpDcysINkV-46" value="Search Profile" style="rhombus;whiteSpace=wrap;html=1;fillColor=#ffffc0;strokeColor=#ff0000;fontSize=15;" vertex="1" parent="1">
          <mxGeometry x="360" y="360" width="120" height="78" as="geometry" />
        </mxCell>
        <mxCell id="wqFc-xufKlRpDcysINkV-47" value="" style="endArrow=open;strokeColor=#FF0000;endFill=1;rounded=0;entryX=0;entryY=0.5;entryDx=0;entryDy=0;" edge="1" parent="1" source="wqFc-xufKlRpDcysINkV-42" target="wqFc-xufKlRpDcysINkV-46">
          <mxGeometry relative="1" as="geometry">
            <mxPoint x="210" y="308" as="sourcePoint" />
            <mxPoint x="210" y="370" as="targetPoint" />
          </mxGeometry>
        </mxCell>
        <mxCell id="wqFc-xufKlRpDcysINkV-48" value="View/Show Profile" style="whiteSpace=wrap;html=1;fontSize=15;fillColor=#FFFFFF;strokeColor=#000000;fontColor=rgb(0, 0, 0);" vertex="1" parent="1">
          <mxGeometry x="584.5" y="369" width="120" height="60" as="geometry" />
        </mxCell>
        <mxCell id="wqFc-xufKlRpDcysINkV-50" value="" style="endArrow=open;strokeColor=#FF0000;endFill=1;rounded=0;exitX=1;exitY=0.5;exitDx=0;exitDy=0;entryX=-0.025;entryY=0.517;entryDx=0;entryDy=0;entryPerimeter=0;" edge="1" parent="1" source="wqFc-xufKlRpDcysINkV-46" target="wqFc-xufKlRpDcysINkV-48">
          <mxGeometry relative="1" as="geometry">
            <mxPoint x="270" y="409" as="sourcePoint" />
            <mxPoint x="530" y="400" as="targetPoint" />
          </mxGeometry>
        </mxCell>
        <mxCell id="wqFc-xufKlRpDcysINkV-52" value="Request Appointment" style="whiteSpace=wrap;html=1;fontSize=15;fillColor=#FFFFFF;strokeColor=#000000;fontColor=rgb(0, 0, 0);" vertex="1" parent="1">
          <mxGeometry x="745" y="369" width="120" height="60" as="geometry" />
        </mxCell>
        <mxCell id="wqFc-xufKlRpDcysINkV-54" value="" style="endArrow=open;strokeColor=#FF0000;endFill=1;rounded=0;exitX=1.029;exitY=0.517;exitDx=0;exitDy=0;exitPerimeter=0;entryX=-0.025;entryY=0.533;entryDx=0;entryDy=0;entryPerimeter=0;" edge="1" parent="1" source="wqFc-xufKlRpDcysINkV-48" target="wqFc-xufKlRpDcysINkV-52">
          <mxGeometry relative="1" as="geometry">
            <mxPoint x="419.5" y="409" as="sourcePoint" />
            <mxPoint x="740" y="400" as="targetPoint" />
          </mxGeometry>
        </mxCell>
        <mxCell id="wqFc-xufKlRpDcysINkV-56" value="&lt;font style=&quot;font-size: 15px;&quot;&gt;Appointment Scheduler&lt;br&gt;&lt;/font&gt;" style="text;html=1;strokeColor=none;fillColor=none;align=center;verticalAlign=middle;whiteSpace=wrap;rounded=0;" vertex="1" parent="1">
          <mxGeometry x="230" y="408" width="175" height="30" as="geometry" />
        </mxCell>
        <mxCell id="wqFc-xufKlRpDcysINkV-60" value="If found" style="text;html=1;strokeColor=none;fillColor=none;align=center;verticalAlign=middle;whiteSpace=wrap;rounded=0;fontSize=15;" vertex="1" parent="1">
          <mxGeometry x="510" y="375" width="60" height="30" as="geometry" />
        </mxCell>
        <mxCell id="wqFc-xufKlRpDcysINkV-62" value="If not found" style="text;html=1;strokeColor=none;fillColor=none;align=center;verticalAlign=middle;whiteSpace=wrap;rounded=0;fontSize=15;" vertex="1" parent="1">
          <mxGeometry x="420" y="310" width="80" height="30" as="geometry" />
        </mxCell>
        <mxCell id="wqFc-xufKlRpDcysINkV-71" style="edgeStyle=orthogonalEdgeStyle;rounded=0;orthogonalLoop=1;jettySize=auto;html=1;exitX=1;exitY=0.5;exitDx=0;exitDy=0;strokeColor=#FF3333;fontSize=15;" edge="1" parent="1" source="wqFc-xufKlRpDcysINkV-67" target="wqFc-xufKlRpDcysINkV-72">
          <mxGeometry relative="1" as="geometry">
            <mxPoint x="1020" y="499" as="targetPoint" />
          </mxGeometry>
        </mxCell>
        <mxCell id="wqFc-xufKlRpDcysINkV-74" style="edgeStyle=orthogonalEdgeStyle;rounded=0;orthogonalLoop=1;jettySize=auto;html=1;exitX=0.5;exitY=0;exitDx=0;exitDy=0;strokeColor=#FF3333;fontSize=15;entryX=0.5;entryY=1.083;entryDx=0;entryDy=0;entryPerimeter=0;" edge="1" parent="1" source="wqFc-xufKlRpDcysINkV-67" target="wqFc-xufKlRpDcysINkV-75">
          <mxGeometry relative="1" as="geometry">
            <mxPoint x="1000" y="420" as="targetPoint" />
            <Array as="points">
              <mxPoint x="860" y="440" />
              <mxPoint x="1000" y="440" />
            </Array>
          </mxGeometry>
        </mxCell>
        <mxCell id="wqFc-xufKlRpDcysINkV-67" value="&lt;div&gt;Manage&lt;/div&gt;&lt;div&gt;Request&lt;/div&gt;" style="rhombus;whiteSpace=wrap;html=1;fillColor=#ffffc0;strokeColor=#ff0000;fontSize=15;" vertex="1" parent="1">
          <mxGeometry x="800" y="460" width="120" height="78" as="geometry" />
        </mxCell>
        <mxCell id="wqFc-xufKlRpDcysINkV-69" value="" style="endArrow=open;strokeColor=#FF0000;endFill=1;rounded=0;entryX=0;entryY=0.5;entryDx=0;entryDy=0;" edge="1" parent="1" target="wqFc-xufKlRpDcysINkV-67">
          <mxGeometry relative="1" as="geometry">
            <mxPoint x="970" y="423" as="targetPoint" />
            <mxPoint x="700" y="500" as="sourcePoint" />
            <Array as="points" />
          </mxGeometry>
        </mxCell>
        <mxCell id="wqFc-xufKlRpDcysINkV-72" value="" style="ellipse;html=1;shape=endState;fillColor=#000000;strokeColor=#ff0000;fontSize=15;" vertex="1" parent="1">
          <mxGeometry x="1040" y="484" width="30" height="30" as="geometry" />
        </mxCell>
        <mxCell id="wqFc-xufKlRpDcysINkV-73" value="Reject" style="text;html=1;strokeColor=none;fillColor=none;align=center;verticalAlign=middle;whiteSpace=wrap;rounded=0;fontSize=15;" vertex="1" parent="1">
          <mxGeometry x="940" y="470" width="60" height="30" as="geometry" />
        </mxCell>
        <mxCell id="wqFc-xufKlRpDcysINkV-75" value="Appointment" style="whiteSpace=wrap;html=1;fontSize=15;fillColor=#FFFFFF;strokeColor=#000000;fontColor=rgb(0, 0, 0);" vertex="1" parent="1">
          <mxGeometry x="940" y="320" width="120" height="60" as="geometry" />
        </mxCell>
        <mxCell id="wqFc-xufKlRpDcysINkV-77" value="If Approved" style="text;html=1;strokeColor=none;fillColor=none;align=center;verticalAlign=middle;whiteSpace=wrap;rounded=0;fontSize=15;" vertex="1" parent="1">
          <mxGeometry x="930" y="408" width="90" height="30" as="geometry" />
        </mxCell>
        <mxCell id="wqFc-xufKlRpDcysINkV-82" style="edgeStyle=orthogonalEdgeStyle;rounded=0;orthogonalLoop=1;jettySize=auto;html=1;exitX=0.5;exitY=1;exitDx=0;exitDy=0;strokeColor=#FF3333;fontSize=15;" edge="1" parent="1" source="wqFc-xufKlRpDcysINkV-81">
          <mxGeometry relative="1" as="geometry">
            <mxPoint x="930" y="500" as="targetPoint" />
            <Array as="points">
              <mxPoint x="845" y="359" />
              <mxPoint x="930" y="359" />
            </Array>
          </mxGeometry>
        </mxCell>
        <mxCell id="wqFc-xufKlRpDcysINkV-81" value="&lt;div&gt;Cancellation&lt;/div&gt;&lt;div&gt;/Rescheduling&lt;/div&gt;&lt;div&gt;Request&lt;br&gt;&lt;/div&gt;" style="rhombus;whiteSpace=wrap;html=1;fillColor=#ffffc0;strokeColor=#ff0000;fontSize=15;" vertex="1" parent="1">
          <mxGeometry x="760" y="110" width="170" height="108" as="geometry" />
        </mxCell>
        <mxCell id="wqFc-xufKlRpDcysINkV-84" value="If Rejected" style="text;html=1;strokeColor=none;fillColor=none;align=center;verticalAlign=middle;whiteSpace=wrap;rounded=0;fontSize=15;" vertex="1" parent="1">
          <mxGeometry x="850" y="330" width="90" height="30" as="geometry" />
        </mxCell>
        <mxCell id="wqFc-xufKlRpDcysINkV-89" style="edgeStyle=orthogonalEdgeStyle;rounded=0;orthogonalLoop=1;jettySize=auto;html=1;exitX=0;exitY=0.5;exitDx=0;exitDy=0;fontSize=15;strokeColor=#FF3333;" edge="1" parent="1" source="wqFc-xufKlRpDcysINkV-81">
          <mxGeometry relative="1" as="geometry">
            <mxPoint x="550" y="500" as="targetPoint" />
            <mxPoint x="430" y="370" as="sourcePoint" />
          </mxGeometry>
        </mxCell>
        <mxCell id="wqFc-xufKlRpDcysINkV-90" value="Rescheduling" style="text;html=1;align=center;verticalAlign=middle;resizable=0;points=[];autosize=1;strokeColor=none;fillColor=none;fontSize=15;" vertex="1" parent="1">
          <mxGeometry x="589.5" y="134" width="110" height="30" as="geometry" />
        </mxCell>
        <mxCell id="wqFc-xufKlRpDcysINkV-91" style="edgeStyle=orthogonalEdgeStyle;rounded=0;orthogonalLoop=1;jettySize=auto;html=1;exitX=1;exitY=0.5;exitDx=0;exitDy=0;fontSize=15;strokeColor=#FF3333;entryX=1;entryY=0.5;entryDx=0;entryDy=0;" edge="1" parent="1" source="wqFc-xufKlRpDcysINkV-81" target="wqFc-xufKlRpDcysINkV-72">
          <mxGeometry relative="1" as="geometry">
            <mxPoint x="1090" y="500" as="targetPoint" />
            <mxPoint x="1300" y="164" as="sourcePoint" />
          </mxGeometry>
        </mxCell>
        <mxCell id="wqFc-xufKlRpDcysINkV-94" value="Cancellation" style="text;html=1;align=center;verticalAlign=middle;resizable=0;points=[];autosize=1;strokeColor=none;fillColor=none;fontSize=15;" vertex="1" parent="1">
          <mxGeometry x="950" y="134" width="110" height="30" as="geometry" />
        </mxCell>
      </root>
    </mxGraphModel>
  </diagram>
</mxfile>
